<?xml version="1.0" standalone="no"?>
<!DOCTYPE svg PUBLIC "-//W3C//DTD SVG 20010904//EN"
 "http://www.w3.org/TR/2001/REC-SVG-20010904/DTD/svg10.dtd">
<svg version="1.0" xmlns="http://www.w3.org/2000/svg"
 width="165.000000pt" height="165.000000pt" viewBox="0 0 165.000000 165.000000"
 preserveAspectRatio="xMidYMid meet">
<metadata>
Created by potrace 1.14, written by Peter Selinger 2001-2017
</metadata>
<g transform="translate(0.000000,165.000000) scale(0.100000,-0.100000)"
fill="#000000" stroke="none">
<path d="M70 1278 c1 -286 5 -391 16 -451 45 -238 169 -437 374 -605 36 -30
72 -60 82 -67 34 -28 209 -126 248 -140 l41 -15 97 51 c234 123 438 315 535
504 17 33 31 62 32 65 0 3 10 30 22 60 48 128 52 171 53 582 l0 388 -750 0
-750 0 0 -372z"/>
</g>
</svg>
